<?xml version="1.0" encoding="UTF-8" standalone="no"?>
<svg
   xmlns:dc="http://purl.org/dc/elements/1.1/"
   xmlns:cc="http://creativecommons.org/ns#"
   xmlns:rdf="http://www.w3.org/1999/02/22-rdf-syntax-ns#"
   xmlns:svg="http://www.w3.org/2000/svg"
   xmlns="http://www.w3.org/2000/svg"
   xmlns:sodipodi="http://sodipodi.sourceforge.net/DTD/sodipodi-0.dtd"
   xmlns:inkscape="http://www.inkscape.org/namespaces/inkscape"
   version="1.1"
   x="0px"
   y="0px"
   width="24px"
   height="24px"
   viewBox="0 0 24 24"
   id="svg2"
   inkscape:version="0.91 r"
   sodipodi:docname="close_dash_pressed.svg">
  <metadata
     id="metadata11">
    <rdf:RDF>
      <cc:Work
         rdf:about="">
        <dc:format>image/svg+xml</dc:format>
        <dc:type
           rdf:resource="http://purl.org/dc/dcmitype/StillImage" />
      </cc:Work>
    </rdf:RDF>
  </metadata>
  <defs
     id="defs9" />
  <sodipodi:namedview
     pagecolor="#ffffff"
     bordercolor="#666666"
     borderopacity="1"
     objecttolerance="10"
     gridtolerance="10"
     guidetolerance="10"
     inkscape:pageopacity="0"
     inkscape:pageshadow="2"
     inkscape:window-width="1366"
     inkscape:window-height="747"
     id="namedview7"
     showgrid="false"
     inkscape:zoom="9.8333333"
     inkscape:cx="15.392257"
     inkscape:cy="12"
     inkscape:window-x="0"
     inkscape:window-y="21"
     inkscape:window-maximized="1"
     inkscape:current-layer="svg2" />
  <path
     style="opacity:0.75;fill:#d64937"
     d="M 8 8 C 8 8 7.9996094 8.1996094 8.0996094 8.5996094 C 8.0996094 8.7996095 8.0992188 9.1007813 8.1992188 9.3007812 C 8.1992188 9.4007812 8.3007812 9.5992186 8.3007812 9.6992188 C 8.4007812 9.8992185 8.4996094 9.9 8.5996094 10 L 10.601562 12 L 8.5996094 14 C 8.4996094 14.1 8.3007812 14.200781 8.3007812 14.300781 C 8.3007812 14.400781 8.1992188 14.599219 8.1992188 14.699219 C 8.1992187 14.999219 8.0996094 15.200391 8.0996094 15.400391 C 7.9996094 15.800391 8 16 8 16 C 8 16 8.1996094 16.000391 8.5996094 15.900391 C 8.7996094 15.900391 9.1007813 15.900781 9.3007812 15.800781 C 9.4007813 15.800781 9.5992188 15.699219 9.6992188 15.699219 C 9.8992187 15.599219 9.9 15.500391 10 15.400391 L 12 13.398438 L 14 15.400391 C 14.1 15.500391 14.200781 15.699219 14.300781 15.699219 C 14.400781 15.699219 14.599219 15.800781 14.699219 15.800781 C 14.999219 15.800781 15.200391 15.900391 15.400391 15.900391 C 15.800391 16.000391 16 16 16 16 C 16 16 16.000391 15.700391 15.900391 15.400391 C 15.900391 15.200391 15.900781 14.899219 15.800781 14.699219 C 15.800781 14.599219 15.699219 14.400781 15.699219 14.300781 C 15.599219 14.100781 15.500391 14.1 15.400391 14 L 13.398438 12 L 15.400391 10 C 15.500391 9.9 15.699219 9.7992187 15.699219 9.6992188 C 15.699219 9.5992188 15.800781 9.4007812 15.800781 9.3007812 C 15.800781 9.0007813 15.900391 8.7996094 15.900391 8.5996094 C 16.000391 8.1996094 16 8 16 8 C 16 8 15.700391 7.9996094 15.400391 8.0996094 C 15.200391 8.0996094 14.899219 8.0992187 14.699219 8.1992188 C 14.599219 8.1992188 14.400781 8.3007812 14.300781 8.3007812 C 14.100781 8.4007813 14.1 8.4996094 14 8.5996094 L 12 10.601562 L 10 8.5996094 C 9.9000001 8.4996093 9.7992187 8.3007812 9.6992188 8.3007812 C 9.5992188 8.3007813 9.4007812 8.1992188 9.3007812 8.1992188 C 9.0007813 8.1992187 8.7996094 8.0996094 8.5996094 8.0996094 C 8.1996092 7.9996094 8 8 8 8 z "
     id="a" />
</svg>
